<?xml version="1.0" encoding="UTF-8"?>
<svg xmlns="http://www.w3.org/2000/svg" xmlns:xlink="http://www.w3.org/1999/xlink" width="700px" height="700px" viewBox="0 0 700 700" version="1.1">
<defs>
<linearGradient id="linear0" gradientUnits="userSpaceOnUse" x1="0.980309" y1="0.001606" x2="0.588877" y2="0.407655" gradientTransform="matrix(365.359375,0,0,363.21875,166.445312,167.515625)">
<stop offset="0.18" style="stop-color:rgb(0%,32.156863%,80%);stop-opacity:1;"/>
<stop offset="1" style="stop-color:rgb(14.901961%,51.764706%,100%);stop-opacity:1;"/>
</linearGradient>
<linearGradient id="linear1" gradientUnits="userSpaceOnUse" x1="1.006652" y1="0.00455032" x2="0.554018" y2="0.44727" gradientTransform="matrix(365.359375,0,0,363.222656,0,334.929688)">
<stop offset="0.18" style="stop-color:rgb(0%,32.156863%,80%);stop-opacity:1;"/>
<stop offset="1" style="stop-color:rgb(14.901961%,51.764706%,100%);stop-opacity:1;"/>
</linearGradient>
</defs>
<g id="surface1">
<path style=" stroke:none;fill-rule:nonzero;fill:rgb(14.901961%,51.764706%,100%);fill-opacity:1;" d="M 668.984375 0 L 332.792969 0 C 332.792969 40.25 348.78125 78.851562 377.242188 107.3125 C 405.703125 135.773438 444.304688 151.765625 484.554688 151.765625 L 546.484375 151.765625 L 546.484375 211.554688 C 546.539062 295.296875 614.410156 363.167969 698.152344 363.222656 L 698.152344 29.167969 C 698.152344 13.058594 685.09375 0 668.984375 0 Z M 668.984375 0 "/>
<path style=" stroke:none;fill-rule:nonzero;fill:url(#linear0);" d="M 502.640625 167.515625 L 166.445312 167.515625 C 166.5 251.253906 234.371094 319.125 318.109375 319.179688 L 380.042969 319.179688 L 380.042969 379.167969 C 380.148438 462.90625 448.066406 530.734375 531.804688 530.734375 L 531.804688 196.679688 C 531.804688 180.570312 518.746094 167.515625 502.640625 167.515625 Z M 502.640625 167.515625 "/>
<path style=" stroke:none;fill-rule:nonzero;fill:url(#linear1);" d="M 336.195312 334.929688 L 0 334.929688 C 0 418.746094 67.945312 486.695312 151.765625 486.695312 L 213.890625 486.695312 L 213.890625 546.484375 C 213.941406 630.152344 281.695312 697.992188 365.359375 698.152344 L 365.359375 364.097656 C 365.359375 347.988281 352.304688 334.929688 336.195312 334.929688 Z M 336.195312 334.929688 "/>
</g>
</svg>
